<mxfile host="app.diagrams.net" agent="Mozilla/5.0 (Windows NT 10.0; Win64; x64) AppleWebKit/537.36 (KHTML, like Gecko) Chrome/140.0.0.0 Safari/537.36" version="28.2.5">
  <diagram name="Page-1" id="5B8OKmOUL3HOI3Psimie">
    <mxGraphModel grid="1" page="1" gridSize="10" guides="1" tooltips="1" connect="1" arrows="1" fold="1" pageScale="1" pageWidth="827" pageHeight="1169" math="0" shadow="0">
      <root>
        <mxCell id="0" />
        <mxCell id="1" parent="0" />
        <mxCell id="FiMNY6e_U_GT-nUvPufW-2" value="" style="rounded=0;whiteSpace=wrap;html=1;dashed=1;" vertex="1" parent="1">
          <mxGeometry x="-50" y="185" width="840" height="435" as="geometry" />
        </mxCell>
        <mxCell id="FiMNY6e_U_GT-nUvPufW-1" value="" style="shape=actor;whiteSpace=wrap;html=1;" vertex="1" parent="1">
          <mxGeometry x="430" y="-150" width="160" height="180" as="geometry" />
        </mxCell>
        <mxCell id="FiMNY6e_U_GT-nUvPufW-3" value="" style="rounded=0;whiteSpace=wrap;html=1;" vertex="1" parent="1">
          <mxGeometry x="-40" y="220" width="190" height="130" as="geometry" />
        </mxCell>
        <mxCell id="FiMNY6e_U_GT-nUvPufW-5" value="Web Application" style="text;html=1;align=center;verticalAlign=middle;whiteSpace=wrap;rounded=0;" vertex="1" parent="1">
          <mxGeometry x="10" y="220" width="90" height="30" as="geometry" />
        </mxCell>
        <mxCell id="FiMNY6e_U_GT-nUvPufW-6" value="(container:nodejs and express)" style="text;html=1;align=center;verticalAlign=middle;whiteSpace=wrap;rounded=0;" vertex="1" parent="1">
          <mxGeometry x="-30" y="250" width="170" height="30" as="geometry" />
        </mxCell>
        <mxCell id="FiMNY6e_U_GT-nUvPufW-7" value="cung cấp các nội dung tĩnh và trang quản lí thư viện&amp;nbsp;" style="text;html=1;align=center;verticalAlign=middle;whiteSpace=wrap;rounded=0;" vertex="1" parent="1">
          <mxGeometry x="-30" y="280" width="170" height="60" as="geometry" />
        </mxCell>
        <mxCell id="jLpqpfGydvJkUPukooU--1" value="người đọc&lt;div&gt;(person)&lt;/div&gt;" style="text;html=1;align=center;verticalAlign=middle;whiteSpace=wrap;rounded=0;" vertex="1" parent="1">
          <mxGeometry x="480" y="-50" width="60" height="30" as="geometry" />
        </mxCell>
        <mxCell id="jLpqpfGydvJkUPukooU--2" value="" style="rounded=0;whiteSpace=wrap;html=1;" vertex="1" parent="1">
          <mxGeometry x="350" y="220" width="180" height="130" as="geometry" />
        </mxCell>
        <mxCell id="jLpqpfGydvJkUPukooU--3" value="Single-Page Application" style="text;html=1;align=center;verticalAlign=middle;whiteSpace=wrap;rounded=0;" vertex="1" parent="1">
          <mxGeometry x="350" y="220" width="170" height="30" as="geometry" />
        </mxCell>
        <mxCell id="jLpqpfGydvJkUPukooU--4" value="(container:javascript and reactjs)" style="text;html=1;align=center;verticalAlign=middle;whiteSpace=wrap;rounded=0;" vertex="1" parent="1">
          <mxGeometry x="350" y="240" width="180" height="30" as="geometry" />
        </mxCell>
        <mxCell id="jLpqpfGydvJkUPukooU--5" value="cung cấp các chức năng của hệ thống quản lí thư viện thông qua browser" style="text;html=1;align=center;verticalAlign=middle;whiteSpace=wrap;rounded=0;" vertex="1" parent="1">
          <mxGeometry x="360" y="280" width="160" height="50" as="geometry" />
        </mxCell>
        <mxCell id="jLpqpfGydvJkUPukooU--6" value="" style="rounded=0;whiteSpace=wrap;html=1;" vertex="1" parent="1">
          <mxGeometry x="600" y="220" width="180" height="130" as="geometry" />
        </mxCell>
        <mxCell id="jLpqpfGydvJkUPukooU--7" value="mobile App" style="text;html=1;align=center;verticalAlign=middle;whiteSpace=wrap;rounded=0;" vertex="1" parent="1">
          <mxGeometry x="605" y="220" width="170" height="30" as="geometry" />
        </mxCell>
        <mxCell id="jLpqpfGydvJkUPukooU--8" value="(container:&lt;span style=&quot;white-space-collapse: preserve; background-color: transparent; color: light-dark(rgb(0, 0, 0), rgb(255, 255, 255));&quot;&gt;Flutter&lt;/span&gt;&lt;span style=&quot;background-color: transparent; color: light-dark(rgb(0, 0, 0), rgb(255, 255, 255));&quot;&gt;)&lt;/span&gt;" style="text;html=1;align=center;verticalAlign=middle;whiteSpace=wrap;rounded=0;" vertex="1" parent="1">
          <mxGeometry x="600" y="240" width="180" height="30" as="geometry" />
        </mxCell>
        <mxCell id="jLpqpfGydvJkUPukooU--9" value="cung cấp giới hạn các chức năng của hệ thống quản lí thư viện trên mobile" style="text;html=1;align=center;verticalAlign=middle;whiteSpace=wrap;rounded=0;" vertex="1" parent="1">
          <mxGeometry x="600" y="270" width="180" height="80" as="geometry" />
        </mxCell>
        <mxCell id="jLpqpfGydvJkUPukooU--10" value="" style="rounded=0;whiteSpace=wrap;html=1;" vertex="1" parent="1">
          <mxGeometry x="500" y="440" width="170" height="130" as="geometry" />
        </mxCell>
        <mxCell id="jLpqpfGydvJkUPukooU--11" value="API application" style="text;html=1;align=center;verticalAlign=middle;whiteSpace=wrap;rounded=0;" vertex="1" parent="1">
          <mxGeometry x="500" y="440" width="170" height="30" as="geometry" />
        </mxCell>
        <mxCell id="jLpqpfGydvJkUPukooU--31" style="edgeStyle=orthogonalEdgeStyle;rounded=0;orthogonalLoop=1;jettySize=auto;html=1;entryX=1;entryY=0.25;entryDx=0;entryDy=0;" edge="1" parent="1" source="jLpqpfGydvJkUPukooU--12" target="jLpqpfGydvJkUPukooU--16">
          <mxGeometry relative="1" as="geometry">
            <Array as="points">
              <mxPoint x="430" y="498" />
            </Array>
          </mxGeometry>
        </mxCell>
        <mxCell id="jLpqpfGydvJkUPukooU--12" value="(container:nodejs and express)" style="text;html=1;align=center;verticalAlign=middle;whiteSpace=wrap;rounded=0;" vertex="1" parent="1">
          <mxGeometry x="500" y="470" width="170" height="30" as="geometry" />
        </mxCell>
        <mxCell id="jLpqpfGydvJkUPukooU--13" value="cung cấp các chức năng của hệ thống quản lí thư viện thông qua Json/https API" style="text;html=1;align=center;verticalAlign=middle;whiteSpace=wrap;rounded=0;" vertex="1" parent="1">
          <mxGeometry x="500" y="510" width="170" height="60" as="geometry" />
        </mxCell>
        <mxCell id="jLpqpfGydvJkUPukooU--14" value="" style="shape=cylinder3;whiteSpace=wrap;html=1;boundedLbl=1;backgroundOutline=1;size=15;" vertex="1" parent="1">
          <mxGeometry x="140" y="435" width="220" height="140" as="geometry" />
        </mxCell>
        <mxCell id="jLpqpfGydvJkUPukooU--15" value="&lt;b&gt;DataBase&lt;/b&gt;" style="text;html=1;align=center;verticalAlign=middle;whiteSpace=wrap;rounded=0;" vertex="1" parent="1">
          <mxGeometry x="210" y="465" width="60" height="30" as="geometry" />
        </mxCell>
        <mxCell id="jLpqpfGydvJkUPukooU--16" value="(container: relational database schema)" style="text;html=1;align=center;verticalAlign=middle;whiteSpace=wrap;rounded=0;" vertex="1" parent="1">
          <mxGeometry x="140" y="490" width="220" height="30" as="geometry" />
        </mxCell>
        <mxCell id="jLpqpfGydvJkUPukooU--17" value="lưu trữ các thông tin về người dùng và sách,..." style="text;html=1;align=center;verticalAlign=middle;whiteSpace=wrap;rounded=0;" vertex="1" parent="1">
          <mxGeometry x="140" y="515" width="220" height="50" as="geometry" />
        </mxCell>
        <mxCell id="jLpqpfGydvJkUPukooU--18" value="" style="endArrow=classic;html=1;rounded=0;exitX=1;exitY=0.5;exitDx=0;exitDy=0;entryX=-0.021;entryY=0.443;entryDx=0;entryDy=0;entryPerimeter=0;" edge="1" parent="1" source="FiMNY6e_U_GT-nUvPufW-3" target="jLpqpfGydvJkUPukooU--2">
          <mxGeometry width="50" height="50" relative="1" as="geometry">
            <mxPoint x="210" y="320" as="sourcePoint" />
            <mxPoint x="260" y="270" as="targetPoint" />
          </mxGeometry>
        </mxCell>
        <mxCell id="jLpqpfGydvJkUPukooU--19" value="Delivers to user web browser" style="text;html=1;align=center;verticalAlign=middle;whiteSpace=wrap;rounded=0;" vertex="1" parent="1">
          <mxGeometry x="175" y="250" width="150" height="30" as="geometry" />
        </mxCell>
        <mxCell id="jLpqpfGydvJkUPukooU--20" value="" style="endArrow=classic;html=1;rounded=0;entryX=0.854;entryY=0.012;entryDx=0;entryDy=0;entryPerimeter=0;exitX=0;exitY=0.75;exitDx=0;exitDy=0;" edge="1" parent="1" source="FiMNY6e_U_GT-nUvPufW-1" target="FiMNY6e_U_GT-nUvPufW-3">
          <mxGeometry width="50" height="50" relative="1" as="geometry">
            <mxPoint x="170" y="190" as="sourcePoint" />
            <mxPoint x="220" y="140" as="targetPoint" />
          </mxGeometry>
        </mxCell>
        <mxCell id="jLpqpfGydvJkUPukooU--21" value="visit abc.com/mainpage" style="text;html=1;align=center;verticalAlign=middle;whiteSpace=wrap;rounded=0;" vertex="1" parent="1">
          <mxGeometry x="130" y="110" width="110" height="30" as="geometry" />
        </mxCell>
        <mxCell id="jLpqpfGydvJkUPukooU--22" value="" style="endArrow=classic;html=1;rounded=0;exitX=0.196;exitY=0.998;exitDx=0;exitDy=0;exitPerimeter=0;entryX=0.5;entryY=0;entryDx=0;entryDy=0;" edge="1" parent="1" source="FiMNY6e_U_GT-nUvPufW-1" target="jLpqpfGydvJkUPukooU--3">
          <mxGeometry width="50" height="50" relative="1" as="geometry">
            <mxPoint x="280" y="190" as="sourcePoint" />
            <mxPoint x="330" y="140" as="targetPoint" />
          </mxGeometry>
        </mxCell>
        <mxCell id="jLpqpfGydvJkUPukooU--23" value="xem sách và sử dụng cách chức năng(tìm kiếm,gia hạn,...)" style="text;html=1;align=center;verticalAlign=middle;whiteSpace=wrap;rounded=0;" vertex="1" parent="1">
          <mxGeometry x="385" y="110" width="110" height="50" as="geometry" />
        </mxCell>
        <mxCell id="jLpqpfGydvJkUPukooU--24" value="" style="endArrow=classic;html=1;rounded=0;entryX=0.5;entryY=0;entryDx=0;entryDy=0;" edge="1" parent="1" source="FiMNY6e_U_GT-nUvPufW-1" target="jLpqpfGydvJkUPukooU--7">
          <mxGeometry width="50" height="50" relative="1" as="geometry">
            <mxPoint x="570" y="160" as="sourcePoint" />
            <mxPoint x="620" y="110" as="targetPoint" />
          </mxGeometry>
        </mxCell>
        <mxCell id="jLpqpfGydvJkUPukooU--25" value="xem sách và sử dụng cách chức năng(tìm kiếm,gia hạn,...)" style="text;html=1;align=center;verticalAlign=middle;whiteSpace=wrap;rounded=0;" vertex="1" parent="1">
          <mxGeometry x="550" y="50" width="120" height="50" as="geometry" />
        </mxCell>
        <mxCell id="jLpqpfGydvJkUPukooU--26" value="" style="endArrow=classic;html=1;rounded=0;exitX=0.75;exitY=1;exitDx=0;exitDy=0;entryX=0.5;entryY=0;entryDx=0;entryDy=0;" edge="1" parent="1" source="jLpqpfGydvJkUPukooU--2" target="jLpqpfGydvJkUPukooU--11">
          <mxGeometry width="50" height="50" relative="1" as="geometry">
            <mxPoint x="420" y="470" as="sourcePoint" />
            <mxPoint x="470" y="420" as="targetPoint" />
          </mxGeometry>
        </mxCell>
        <mxCell id="jLpqpfGydvJkUPukooU--27" value="" style="endArrow=classic;html=1;rounded=0;exitX=0.5;exitY=1;exitDx=0;exitDy=0;entryX=0.5;entryY=0;entryDx=0;entryDy=0;" edge="1" parent="1" source="jLpqpfGydvJkUPukooU--9" target="jLpqpfGydvJkUPukooU--11">
          <mxGeometry width="50" height="50" relative="1" as="geometry">
            <mxPoint x="650" y="380" as="sourcePoint" />
            <mxPoint x="750" y="470" as="targetPoint" />
          </mxGeometry>
        </mxCell>
        <mxCell id="jLpqpfGydvJkUPukooU--28" value="gọi API" style="text;html=1;align=center;verticalAlign=middle;whiteSpace=wrap;rounded=0;" vertex="1" parent="1">
          <mxGeometry x="670" y="370" width="60" height="30" as="geometry" />
        </mxCell>
        <mxCell id="jLpqpfGydvJkUPukooU--30" value="gọi API" style="text;html=1;align=center;verticalAlign=middle;whiteSpace=wrap;rounded=0;" vertex="1" parent="1">
          <mxGeometry x="450" y="380" width="60" height="30" as="geometry" />
        </mxCell>
        <mxCell id="jLpqpfGydvJkUPukooU--32" value="đọc và ghi dữ liệu" style="text;html=1;align=center;verticalAlign=middle;whiteSpace=wrap;rounded=0;" vertex="1" parent="1">
          <mxGeometry x="360" y="450" width="120" height="30" as="geometry" />
        </mxCell>
        <mxCell id="jLpqpfGydvJkUPukooU--33" value="E-mail System&lt;div&gt;(software system)&lt;/div&gt;&lt;div&gt;&lt;br&gt;&lt;/div&gt;&lt;div&gt;the internal Microsort email-system&lt;/div&gt;" style="rounded=0;whiteSpace=wrap;html=1;" vertex="1" parent="1">
          <mxGeometry x="940" y="245" width="210" height="120" as="geometry" />
        </mxCell>
        <mxCell id="jLpqpfGydvJkUPukooU--34" value="" style="endArrow=classic;html=1;rounded=0;exitX=1;exitY=0.25;exitDx=0;exitDy=0;entryX=0;entryY=1;entryDx=0;entryDy=0;dashed=1;dashPattern=8 8;" edge="1" parent="1" source="jLpqpfGydvJkUPukooU--12" target="jLpqpfGydvJkUPukooU--33">
          <mxGeometry width="50" height="50" relative="1" as="geometry">
            <mxPoint x="780" y="510" as="sourcePoint" />
            <mxPoint x="830" y="460" as="targetPoint" />
          </mxGeometry>
        </mxCell>
        <mxCell id="jLpqpfGydvJkUPukooU--35" value="gửi email" style="text;html=1;align=center;verticalAlign=middle;whiteSpace=wrap;rounded=0;" vertex="1" parent="1">
          <mxGeometry x="740" y="380" width="120" height="30" as="geometry" />
        </mxCell>
        <mxCell id="jLpqpfGydvJkUPukooU--36" value="" style="endArrow=classic;html=1;rounded=0;exitX=0;exitY=0;exitDx=0;exitDy=0;entryX=0.994;entryY=0.716;entryDx=0;entryDy=0;dashed=1;dashPattern=8 8;entryPerimeter=0;" edge="1" parent="1" source="jLpqpfGydvJkUPukooU--33" target="FiMNY6e_U_GT-nUvPufW-1">
          <mxGeometry width="50" height="50" relative="1" as="geometry">
            <mxPoint x="610" y="208" as="sourcePoint" />
            <mxPoint x="860" y="-50" as="targetPoint" />
          </mxGeometry>
        </mxCell>
        <mxCell id="jLpqpfGydvJkUPukooU--37" value="gửi email tới&amp;nbsp;" style="text;html=1;align=center;verticalAlign=middle;whiteSpace=wrap;rounded=0;" vertex="1" parent="1">
          <mxGeometry x="840" y="145" width="80" height="30" as="geometry" />
        </mxCell>
        <mxCell id="jLpqpfGydvJkUPukooU--38" value="hệ thống quản lí thư viện" style="text;html=1;align=center;verticalAlign=middle;whiteSpace=wrap;rounded=0;" vertex="1" parent="1">
          <mxGeometry x="-50" y="590" width="150" height="30" as="geometry" />
        </mxCell>
        <mxCell id="NMMOZDCfS_1rhgpl1bvs-1" value="" style="rounded=0;whiteSpace=wrap;html=1;" vertex="1" parent="1">
          <mxGeometry x="935" y="445" width="220" height="140" as="geometry" />
        </mxCell>
        <mxCell id="NMMOZDCfS_1rhgpl1bvs-2" value="hệ thống thanh toán&lt;div&gt;(software system)&lt;/div&gt;" style="text;html=1;align=center;verticalAlign=middle;whiteSpace=wrap;rounded=0;" vertex="1" parent="1">
          <mxGeometry x="980" y="460" width="130" height="30" as="geometry" />
        </mxCell>
        <mxCell id="NMMOZDCfS_1rhgpl1bvs-3" value="xử lí thanh toán phí thành viên và phí trễ hạn" style="text;html=1;align=center;verticalAlign=middle;whiteSpace=wrap;rounded=0;" vertex="1" parent="1">
          <mxGeometry x="970" y="515" width="150" height="30" as="geometry" />
        </mxCell>
        <mxCell id="NMMOZDCfS_1rhgpl1bvs-4" value="" style="endArrow=classic;html=1;rounded=0;exitX=1;exitY=0.25;exitDx=0;exitDy=0;entryX=0;entryY=0.5;entryDx=0;entryDy=0;dashed=1;dashPattern=8 8;" edge="1" parent="1" source="jLpqpfGydvJkUPukooU--12" target="NMMOZDCfS_1rhgpl1bvs-1">
          <mxGeometry width="50" height="50" relative="1" as="geometry">
            <mxPoint x="840" y="673" as="sourcePoint" />
            <mxPoint x="1110" y="560" as="targetPoint" />
          </mxGeometry>
        </mxCell>
        <mxCell id="NMMOZDCfS_1rhgpl1bvs-5" value="gọi API" style="text;html=1;align=center;verticalAlign=middle;whiteSpace=wrap;rounded=0;" vertex="1" parent="1">
          <mxGeometry x="800" y="465" width="60" height="30" as="geometry" />
        </mxCell>
        <mxCell id="tkDjYh4oish9AHlnOR3B-2" value="" style="shape=actor;whiteSpace=wrap;html=1;" vertex="1" parent="1">
          <mxGeometry x="160" y="-180" width="160" height="180" as="geometry" />
        </mxCell>
        <mxCell id="tkDjYh4oish9AHlnOR3B-3" value="thủ thư/admin&lt;br&gt;&lt;div&gt;(person)&lt;/div&gt;" style="text;html=1;align=center;verticalAlign=middle;whiteSpace=wrap;rounded=0;" vertex="1" parent="1">
          <mxGeometry x="170" y="-50" width="120" height="30" as="geometry" />
        </mxCell>
        <mxCell id="tkDjYh4oish9AHlnOR3B-4" value="" style="endArrow=classic;html=1;rounded=0;exitX=0.75;exitY=1;exitDx=0;exitDy=0;entryX=0.5;entryY=0;entryDx=0;entryDy=0;" edge="1" parent="1" source="tkDjYh4oish9AHlnOR3B-2" target="jLpqpfGydvJkUPukooU--3">
          <mxGeometry width="50" height="50" relative="1" as="geometry">
            <mxPoint x="450" y="30" as="sourcePoint" />
            <mxPoint x="500" y="-20" as="targetPoint" />
          </mxGeometry>
        </mxCell>
        <mxCell id="tkDjYh4oish9AHlnOR3B-5" value="xem sách và sử dụng cách chức năng(tìm kiếm,gia hạn,...)" style="text;html=1;align=center;verticalAlign=middle;whiteSpace=wrap;rounded=0;" vertex="1" parent="1">
          <mxGeometry x="230" y="30" width="105" height="40" as="geometry" />
        </mxCell>
        <mxCell id="tkDjYh4oish9AHlnOR3B-7" value="" style="endArrow=classic;html=1;rounded=0;exitX=0.976;exitY=0.989;exitDx=0;exitDy=0;entryX=0.5;entryY=0;entryDx=0;entryDy=0;exitPerimeter=0;" edge="1" parent="1" source="tkDjYh4oish9AHlnOR3B-2" target="jLpqpfGydvJkUPukooU--7">
          <mxGeometry width="50" height="50" relative="1" as="geometry">
            <mxPoint x="350" y="30" as="sourcePoint" />
            <mxPoint x="515" y="220" as="targetPoint" />
          </mxGeometry>
        </mxCell>
        <mxCell id="tkDjYh4oish9AHlnOR3B-8" value="xem sách và sử dụng cách chức năng(tìm kiếm,gia hạn,...)" style="text;html=1;align=center;verticalAlign=middle;whiteSpace=wrap;rounded=0;" vertex="1" parent="1">
          <mxGeometry x="510" y="120" width="110" height="50" as="geometry" />
        </mxCell>
        <mxCell id="tkDjYh4oish9AHlnOR3B-10" value="" style="endArrow=classic;html=1;rounded=0;exitX=0.25;exitY=1;exitDx=0;exitDy=0;entryX=0.25;entryY=0;entryDx=0;entryDy=0;" edge="1" parent="1" source="tkDjYh4oish9AHlnOR3B-2" target="FiMNY6e_U_GT-nUvPufW-3">
          <mxGeometry width="50" height="50" relative="1" as="geometry">
            <mxPoint x="-50" y="140" as="sourcePoint" />
            <mxPoint y="90" as="targetPoint" />
          </mxGeometry>
        </mxCell>
        <mxCell id="tkDjYh4oish9AHlnOR3B-11" value="visit abc.com/adminpage" style="text;html=1;align=center;verticalAlign=middle;whiteSpace=wrap;rounded=0;" vertex="1" parent="1">
          <mxGeometry x="-10" y="80" width="110" height="30" as="geometry" />
        </mxCell>
      </root>
    </mxGraphModel>
  </diagram>
</mxfile>
